<svg width="84" height="40" viewBox="0 0 84 40" fill="none" xmlns="http://www.w3.org/2000/svg">
<path d="M69.7775 13.4873C69.5038 13.4873 69.3397 13.7062 69.3397 13.9251V17.154H77.877L73.9914 13.4873H69.7775Z" fill="#126BC5"/>
<path d="M78.1506 18.1392C78.1506 17.8655 77.9316 17.7013 77.7127 17.7013H74.4839V26.2387L78.1506 22.3531V18.1392Z" fill="#126BC5"/>
<path d="M73.4988 26.5122C73.7724 26.5122 73.9366 26.2933 73.9366 26.0744V22.8456H65.3993L69.2848 26.5122H73.4988Z" fill="#126BC5"/>
<path d="M65.1256 21.8605C65.1256 22.1341 65.3445 22.2983 65.5634 22.2983H68.7923V13.8157L65.1256 17.7013V21.8605Z" fill="#126BC5"/>
<path d="M26.1055 15.0196V18.9599H20.6328V15.0196H18.6627V24.9798H20.6328V20.7111H26.1055V24.9798H28.1303V15.0196H26.1055Z" fill="#000008"/>
<path d="M52.6478 15.0196V24.925H61.404L60.3095 23.2285H54.6727V20.7111H60.0906V19.0146H54.6727V16.7708H60.2548L61.3493 15.0196H52.6478Z" fill="#000008"/>
<path d="M11.22 15.0196C9.14039 15.0196 8.10059 16.2783 8.10059 18.139V21.8604C8.10059 23.9947 9.46875 24.9798 11.22 24.9798H17.4588L16.3095 23.1191H11.6031C10.618 23.1191 10.1802 22.736 10.1802 21.6415V18.3031C10.1802 17.2086 10.5633 16.7708 11.6578 16.7708H16.3643L17.4588 15.0196H11.22Z" fill="#000008"/>
<path d="M43.8916 15.0196C42.6876 15.0196 41.4836 15.731 41.4836 17.5917V18.0843C41.4836 19.9997 42.6876 20.7659 43.8368 20.7659H47.9961C48.4339 20.7659 48.7622 20.8206 48.7622 21.5868V22.4076C48.7622 23.0644 48.4339 23.2285 47.9413 23.2285H42.4687L41.3742 24.9798H48.1055C49.7473 24.9798 50.8418 24.1589 50.8418 22.2982V21.6415C50.8418 19.8355 49.802 19.0146 48.215 19.0146H44.2199C43.7821 19.0146 43.4538 18.9052 43.4538 18.2484V17.4823C43.4538 16.935 43.6727 16.7161 44.1652 16.7161H49.3642L50.4587 15.0196H43.8916Z" fill="#000008"/>
<path d="M33.9315 15.0196L29.225 24.925H31.4688L32.3992 22.9002H37.4887L38.4191 24.925H40.6628L35.9016 15.0196H33.9315ZM34.8618 17.0992L36.6678 21.2036H33.0559L34.8618 17.0992Z" fill="#000008"/>
</svg>
