<svg width="73" height="48" viewBox="0 0 73 48" fill="none" xmlns="http://www.w3.org/2000/svg">
<g clip-path="url(#clip0_99_228)">
<path d="M4.47662 28.8547C4.78094 29.6623 5.20227 30.3528 5.74069 30.9263C6.27911 31.4998 6.91697 31.9387 7.65428 32.243C8.39167 32.5474 9.19339 32.6995 10.0595 32.6995C10.9023 32.6995 11.6922 32.5415 12.4296 32.2254C13.167 31.9094 13.8107 31.4646 14.3608 30.8912C14.9109 30.3176 15.3381 29.633 15.6424 28.8371C15.9467 28.0412 16.0989 27.1518 16.0989 26.1686V11H19.7857V35.5787H16.134V33.2963C15.3147 34.1624 14.3491 34.8295 13.2372 35.2978C12.1252 35.7659 10.9256 36 9.63819 36C8.32726 36 7.10421 35.7717 5.96888 35.3153C4.83362 34.8588 3.85041 34.2093 3.01947 33.3666C2.18854 32.5238 1.53304 31.5116 1.0532 30.3294C0.573292 29.1473 0.333374 27.8306 0.333374 26.3792V11H4.02017V26.1686C4.02017 27.1518 4.17229 28.0471 4.47662 28.8547Z" fill="white"/>
<path d="M26.1407 11V19.9536C26.96 19.1344 27.9081 18.4848 28.9848 18.0049C30.0616 17.525 31.232 17.2851 32.496 17.2851C33.8069 17.2851 35.0357 17.5308 36.1828 18.0224C37.3298 18.514 38.3246 19.1811 39.1673 20.0239C40.0101 20.8666 40.6772 21.8614 41.1688 23.0084C41.6604 24.1555 41.9061 25.3727 41.9061 26.6601C41.9061 27.9475 41.6604 29.1589 41.1688 30.2942C40.6772 31.4295 40.0101 32.4186 39.1673 33.2611C38.3246 34.1039 37.3298 34.771 36.1828 35.2626C35.0357 35.7542 33.8069 35.9999 32.496 35.9999C31.2319 35.9999 30.0557 35.76 28.9673 35.2801C27.8788 34.8003 26.9249 34.1507 26.1056 33.3314V35.5786H22.5944V11H26.1407ZM26.5445 29.0829C26.8604 29.832 27.2994 30.4874 27.8612 31.0492C28.423 31.611 29.0784 32.0558 29.8275 32.3835C30.5766 32.7112 31.3842 32.8751 32.2503 32.8751C33.093 32.8751 33.8888 32.7112 34.6379 32.3835C35.3869 32.0558 36.0364 31.6111 36.5867 31.0492C37.1367 30.4875 37.5756 29.832 37.9033 29.0829C38.2311 28.3338 38.3949 27.5263 38.3949 26.6601C38.3949 25.794 38.2311 24.9806 37.9033 24.2198C37.5756 23.459 37.1367 22.7978 36.5867 22.236C36.0365 21.6742 35.387 21.2353 34.6379 20.9193C33.8888 20.6033 33.0929 20.4452 32.2503 20.4452C31.4076 20.4452 30.6117 20.6032 29.8627 20.9193C29.1136 21.2353 28.4582 21.6742 27.8963 22.236C27.3346 22.7978 26.8898 23.459 26.5621 24.2198C26.2344 24.9806 26.0705 25.794 26.0705 26.6601C26.0705 27.5263 26.2285 28.3338 26.5445 29.0829Z" fill="white"/>
<path d="M43.9071 23.0435C44.3752 21.9199 45.019 20.931 45.8382 20.0766C46.6574 19.2222 47.629 18.5492 48.7526 18.0576C49.8762 17.5661 51.0934 17.3203 52.4043 17.3203C53.6917 17.3203 54.8856 17.5544 55.9858 18.0225C57.0859 18.4907 58.0339 19.1403 58.8298 19.9713C59.6257 20.8022 60.2461 21.7854 60.6907 22.9207C61.1355 24.056 61.3579 25.2908 61.3579 26.6251V27.7838H46.7863C46.9034 28.5095 47.1375 29.1825 47.4886 29.8027C47.8398 30.423 48.2786 30.9614 48.8053 31.4179C49.3319 31.8744 49.9289 32.2314 50.596 32.4888C51.2632 32.7463 51.9712 32.8751 52.7203 32.8751C54.8505 32.8751 56.571 31.9972 57.8819 30.2416L60.4451 32.1376C59.5556 33.3315 58.4554 34.2678 57.1446 34.9466C55.8337 35.6255 54.359 35.9649 52.7204 35.9649C51.3861 35.9649 50.1396 35.7307 48.9809 35.2626C47.8222 34.7945 46.8157 34.139 45.9613 33.2963C45.1069 32.4535 44.4339 31.4646 43.9423 30.3293C43.4508 29.1941 43.205 27.9592 43.205 26.625C43.2048 25.361 43.439 24.1671 43.9071 23.0435ZM48.8404 21.6565C47.8455 22.4876 47.1843 23.5936 46.8566 24.9747H57.7765C57.4722 23.5936 56.8226 22.4876 55.8277 21.6565C54.8329 20.8256 53.6683 20.4101 52.3341 20.4101C50.9998 20.4101 49.8352 20.8256 48.8404 21.6565Z" fill="white"/>
<path d="M67.9941 22.0604C67.245 22.8797 66.8705 23.9915 66.8705 25.3961V35.5788H63.3241V17.6714H66.8353V19.8835C67.2801 19.1578 67.8594 18.5843 68.5734 18.163C69.2873 17.7415 70.1359 17.5308 71.1191 17.5308H72.3479V20.8314H70.8732C69.7029 20.8315 68.7431 21.2411 67.9941 22.0604Z" fill="white"/>
</g>
<defs>
<clipPath id="clip0_99_228">
<rect width="72" height="48" fill="white" transform="translate(0.333374)"/>
</clipPath>
</defs>
</svg>
