<svg width="175" height="50" viewBox="0 0 175 50" fill="none" xmlns="http://www.w3.org/2000/svg">
<path d="M150.477 23.5262C152.686 23.5262 153.537 24.8778 153.656 26.0547C153.658 26.0725 153.656 26.0904 153.65 26.1073C153.644 26.1242 153.635 26.1398 153.623 26.1529C153.611 26.1661 153.597 26.1766 153.58 26.1838C153.564 26.1909 153.546 26.1946 153.528 26.1945H147.462C147.444 26.1945 147.426 26.1906 147.41 26.1832C147.393 26.1757 147.378 26.1648 147.366 26.1512C147.354 26.1376 147.345 26.1217 147.34 26.1043C147.335 26.087 147.333 26.0687 147.335 26.0508C147.499 24.9008 148.518 23.5262 150.477 23.5262ZM153.802 31.009C153.762 31.0088 153.722 31.0182 153.686 31.0364C153.65 31.0546 153.619 31.0811 153.595 31.1138C153.048 31.8844 152.158 32.3596 150.828 32.3596C148.996 32.3596 147.406 31.1557 147.235 29.4497C147.233 29.4321 147.235 29.4142 147.241 29.3974C147.246 29.3805 147.255 29.3651 147.267 29.3519C147.279 29.3388 147.294 29.3282 147.31 29.321C147.326 29.3138 147.344 29.31 147.361 29.31H158.261C158.292 29.2141 158.356 28.4834 158.356 27.8156C158.356 22.7326 155.325 19.714 150.413 19.714C146.298 19.714 142.502 22.9542 142.502 28.0382C142.502 33.3448 146.394 36.4583 150.764 36.4583C154.714 36.4583 157.217 34.2482 158.028 31.577C158.033 31.561 158.06 31.4612 158.09 31.3154C158.098 31.2784 158.097 31.24 158.088 31.2032C158.079 31.1665 158.062 31.1321 158.038 31.1028C158.015 31.0734 157.984 31.0498 157.95 31.0335C157.916 31.0173 157.879 31.0089 157.841 31.009H153.802V31.009ZM163.44 27.9574L158.272 20.5904C158.245 20.5522 158.23 20.5074 158.227 20.4609C158.224 20.4143 158.234 20.3679 158.255 20.3266C158.277 20.2853 158.309 20.2507 158.349 20.2267C158.389 20.2026 158.435 20.19 158.482 20.1901H163.563C163.649 20.1901 163.729 20.2331 163.777 20.3049L166.433 24.3478C166.482 24.4246 166.596 24.4236 166.646 24.3458L169.241 20.3079C169.264 20.2718 169.295 20.2421 169.333 20.2215C169.37 20.201 169.412 20.1902 169.455 20.1901H174.245C174.452 20.1901 174.573 20.4227 174.454 20.5914L169.355 27.7647C169.325 27.8074 169.309 27.8584 169.308 27.9108C169.308 27.9632 169.324 28.0143 169.354 28.0572C171.023 30.433 172.931 33.1781 174.643 35.5809C174.763 35.7496 174.643 35.9812 174.435 35.9812H169.389C169.347 35.9813 169.305 35.971 169.268 35.9512C169.231 35.9313 169.199 35.9025 169.176 35.8674L166.423 31.6928C166.411 31.6753 166.395 31.6609 166.377 31.651C166.358 31.6411 166.337 31.6359 166.316 31.6359C166.295 31.6359 166.274 31.6411 166.256 31.651C166.237 31.6609 166.222 31.6753 166.21 31.6928C165.385 32.9186 164.307 34.6256 163.49 35.8674C163.466 35.9026 163.435 35.9314 163.397 35.9513C163.36 35.9711 163.318 35.9814 163.276 35.9812H158.572C158.526 35.9814 158.48 35.9689 158.441 35.945C158.401 35.9212 158.368 35.8868 158.347 35.8457C158.325 35.8046 158.315 35.7584 158.318 35.712C158.321 35.6657 158.336 35.621 158.363 35.5829L163.441 28.2469C163.47 28.2044 163.486 28.1539 163.486 28.1021C163.486 28.0504 163.47 27.9999 163.441 27.9574H163.44ZM136.058 35.7276V13.2325C136.058 13.0917 136.173 12.9779 136.314 12.9779H140.652C140.793 12.9779 140.908 13.0917 140.908 13.2325V35.7276C140.908 35.8674 140.793 35.9812 140.652 35.9812H136.314C136.28 35.9813 136.247 35.9748 136.216 35.9622C136.185 35.9495 136.157 35.9308 136.134 35.9073C136.11 35.8838 136.091 35.8558 136.078 35.8249C136.065 35.7941 136.058 35.761 136.058 35.7276V35.7276ZM128.913 35.7276V13.2325C128.913 13.0917 129.028 12.9779 129.169 12.9779H133.507C133.648 12.9779 133.761 13.0917 133.761 13.2325V35.7276C133.761 35.8674 133.648 35.9812 133.507 35.9812H129.169C129.135 35.9813 129.102 35.9748 129.071 35.9622C129.04 35.9495 129.012 35.9308 128.988 35.9073C128.965 35.8838 128.946 35.8558 128.933 35.8249C128.92 35.7941 128.913 35.761 128.913 35.7276V35.7276ZM118.184 32.2637C120.131 32.2637 121.789 30.7394 121.789 28.0702C121.789 25.338 120.162 23.9076 118.184 23.9076C116.111 23.9076 114.547 25.338 114.547 28.0702C114.547 30.6756 116.175 32.2647 118.184 32.2647V32.2637ZM121.821 33.9478C121.119 35.4731 119.525 36.4264 117.546 36.4264C112.888 36.4264 109.667 32.8996 109.667 28.0382C109.667 23.3366 112.698 19.713 117.386 19.713C120.225 19.713 121.469 21.2702 121.789 22.0009V20.4437C121.789 20.3039 121.902 20.1901 122.044 20.1901H126.223C126.363 20.1901 126.477 20.3039 126.477 20.4447V35.7276C126.477 35.8674 126.364 35.9812 126.223 35.9812H122.047C122.014 35.9812 121.98 35.9745 121.949 35.9615C121.918 35.9485 121.89 35.9295 121.866 35.9055C121.842 35.8816 121.824 35.8532 121.811 35.8219C121.799 35.7907 121.792 35.7573 121.793 35.7236C121.801 35.1496 121.821 33.823 121.821 33.9478V33.9478ZM99.3205 20.3648L102.226 29.1672C102.266 29.287 102.436 29.283 102.47 29.1622L104.953 20.3758C104.968 20.3223 105 20.2752 105.044 20.2416C105.088 20.2081 105.142 20.19 105.198 20.1901H109.411C109.583 20.1901 109.706 20.3558 109.655 20.5196L104.901 35.8025C104.885 35.8545 104.852 35.9001 104.808 35.9324C104.765 35.9648 104.712 35.9822 104.657 35.9822H100.212C100.159 35.982 100.107 35.9652 100.063 35.9341C100.02 35.9029 99.9874 35.859 99.9703 35.8085L96.7061 26.1436C96.6662 26.0278 96.5015 26.0288 96.4635 26.1436L93.2592 35.8065C93.2424 35.8573 93.2101 35.9015 93.1667 35.9329C93.1233 35.9642 93.0712 35.9811 93.0177 35.9812H88.4767C88.4225 35.9812 88.3697 35.964 88.3259 35.9321C88.2821 35.9001 88.2496 35.8551 88.2331 35.8035L83.4167 20.5206C83.4048 20.4824 83.402 20.442 83.4086 20.4026C83.4152 20.3631 83.431 20.3258 83.4548 20.2937C83.4785 20.2615 83.5094 20.2353 83.5451 20.2174C83.5808 20.1994 83.6203 20.1901 83.6602 20.1901H88.1603C88.2741 20.1901 88.3749 20.266 88.4058 20.3758L90.8884 29.1343C90.9224 29.2541 91.0921 29.2581 91.132 29.1393L94.0688 20.3648C94.0858 20.3139 94.1183 20.2697 94.1619 20.2383C94.2054 20.207 94.2577 20.1901 94.3114 20.1901H99.0779C99.1877 20.1901 99.2865 20.26 99.3205 20.3648V20.3648ZM82.101 24.6442C82.101 24.6814 82.0928 24.7181 82.0771 24.7517C82.0614 24.7854 82.0386 24.8152 82.0101 24.839C81.9817 24.8629 81.9484 24.8803 81.9125 24.8899C81.8766 24.8995 81.8391 24.9012 81.8025 24.8948C81.3953 24.826 80.9827 24.7932 80.5697 24.797C78.6232 24.797 76.8693 25.9409 76.8693 29.0864V35.7276C76.8693 35.8674 76.7555 35.9812 76.6147 35.9812H72.2764C72.243 35.9813 72.2099 35.9748 72.1789 35.9622C72.148 35.9495 72.1199 35.9308 72.0961 35.9073C72.0724 35.8838 72.0535 35.8558 72.0406 35.8249C72.0277 35.7941 72.021 35.761 72.0209 35.7276V20.4447C72.0209 20.3049 72.1347 20.1901 72.2764 20.1901H76.455C76.5958 20.1901 76.7096 20.3039 76.7096 20.4447V22.3194C77.5391 20.5395 79.5495 20.0314 80.8253 20.0314C81.2126 20.0314 81.5999 20.0733 81.9024 20.1392C82.0191 20.1652 82.101 20.269 82.101 20.3878V24.6442ZM64.7797 35.7276V20.4447C64.7797 20.3049 64.8945 20.1901 65.0353 20.1901H69.3736C69.5143 20.1901 69.6291 20.3039 69.6291 20.4447V35.7276C69.6291 35.8674 69.5143 35.9812 69.3736 35.9812H65.0353C65.0018 35.9813 64.9687 35.9748 64.9378 35.9622C64.9068 35.9495 64.8787 35.9308 64.855 35.9073C64.8312 35.8838 64.8124 35.8558 64.7995 35.8249C64.7866 35.7941 64.7798 35.761 64.7797 35.7276ZM67.1725 12.5327C68.7676 12.5327 70.0434 13.8035 70.0434 15.3607C70.0434 16.9179 68.7676 18.1887 67.1725 18.1887C65.6412 18.1887 64.3654 16.9179 64.3654 15.3607C64.3654 13.8035 65.6412 12.5327 67.1725 12.5327V12.5327ZM49.3301 26.8304H54.457C54.5448 26.8304 54.6067 26.7445 54.5768 26.6617L52.0453 19.3886C52.0367 19.3634 52.0205 19.3415 51.9989 19.326C51.9773 19.3105 51.9514 19.3021 51.9248 19.302C51.8983 19.3019 51.8723 19.31 51.8506 19.3254C51.8289 19.3407 51.8125 19.3625 51.8037 19.3876L49.2113 26.6617C49.1814 26.7435 49.2432 26.8314 49.3311 26.8314L49.3301 26.8304ZM56.0512 31.4063H47.671C47.6185 31.4063 47.5672 31.4227 47.5243 31.4531C47.4814 31.4835 47.449 31.5264 47.4315 31.576L45.9241 35.8125C45.9065 35.8622 45.874 35.9052 45.8309 35.9356C45.7878 35.966 45.7363 35.9823 45.6836 35.9822H40.938C40.8967 35.9824 40.8559 35.9726 40.8193 35.9535C40.7826 35.9345 40.7512 35.9069 40.7276 35.873C40.704 35.8391 40.689 35.8 40.6839 35.759C40.6789 35.718 40.6838 35.6764 40.6984 35.6378L49.0236 13.6188C49.0419 13.5703 49.0746 13.5286 49.1172 13.4992C49.1598 13.4697 49.2104 13.454 49.2622 13.4541H54.7465C54.8523 13.4541 54.9481 13.52 54.9851 13.6198L63.2165 35.6388C63.2306 35.6773 63.2353 35.7187 63.23 35.7594C63.2247 35.8001 63.2097 35.8389 63.1861 35.8725C63.1626 35.9062 63.1313 35.9336 63.0948 35.9525C63.0584 35.9714 63.018 35.9813 62.9769 35.9812H58.0387C57.9859 35.9811 57.9345 35.9648 57.8915 35.9344C57.8484 35.904 57.8158 35.8611 57.7981 35.8115L56.2908 31.576C56.2731 31.5265 56.2406 31.4836 56.1978 31.4533C56.1549 31.4229 56.1037 31.4065 56.0512 31.4063V31.4063Z" fill="white"/>
<path fill-rule="evenodd" clip-rule="evenodd" d="M34.5531 21.9051C35.174 22.5095 35.6047 23.2823 35.7921 24.1282C35.9796 24.9742 35.9157 25.8566 35.6082 26.6667L33.2653 33.0314C32.6504 34.7024 31.2489 35.9952 29.517 36.3326C28.6507 36.5059 27.7535 36.4406 26.9215 36.1434C26.0894 35.8463 25.3538 35.3285 24.7934 34.6455L10.7443 17.8134C10.7093 17.772 10.6641 17.7404 10.6132 17.722C10.5623 17.7035 10.5074 17.6987 10.454 17.7081C10.4007 17.7175 10.3507 17.7407 10.3091 17.7755C10.2676 17.8103 10.2359 17.8554 10.2172 17.9062L5.6463 30.2693C5.55147 30.5248 5.80303 30.7724 6.05258 30.6706L11.6616 28.3797C11.9779 28.2515 12.3172 28.19 12.6583 28.1991C12.9994 28.2082 13.3349 28.2877 13.6438 28.4326C13.9527 28.5775 14.2284 28.7847 14.4535 29.0412C14.6786 29.2976 14.8482 29.5978 14.9518 29.9229C15.3661 31.1937 14.6693 32.5662 13.4425 33.0673L6.11547 36.059C4.75888 36.6131 3.20064 36.5152 1.9788 35.6997C1.14616 35.1432 0.525388 34.3224 0.216751 33.3696C-0.0918874 32.4169 -0.0703734 31.388 0.277818 30.449L5.67825 15.8469C6.31811 14.1159 7.77553 12.8941 9.57734 12.5787C10.4548 12.4214 11.3583 12.5008 12.1948 12.8088C13.0314 13.1167 13.7708 13.642 14.3369 14.3306L22.4006 23.9934L29.8175 20.9638C31.4655 20.291 33.2803 20.6513 34.5531 21.9051ZM30.2756 26.7585C30.3695 26.503 30.1179 26.2554 29.8684 26.3582L25.7706 28.0313L28.2283 30.977C28.2631 31.019 28.3084 31.0509 28.3596 31.0697C28.4108 31.0885 28.466 31.0934 28.5197 31.084C28.5734 31.0746 28.6237 31.0512 28.6654 31.0161C28.7071 30.981 28.7388 30.9355 28.7573 30.8842L30.2747 26.7585H30.2756Z" fill="white"/>
</svg>
