<svg width="149" height="48" viewBox="0 0 149 48" fill="none" xmlns="http://www.w3.org/2000/svg">
<path d="M1.15598 26.2057L16.711 41.7607C8.76755 40.418 2.49869 34.1491 1.15598 26.2057Z" fill="white"/>
<path d="M0.916687 21.9828L20.9339 42C22.1244 41.9364 23.2857 41.7633 24.4081 41.4906L1.42612 18.5086C1.1534 19.631 0.980295 20.7923 0.916687 21.9828Z" fill="white"/>
<path d="M2.42255 15.5212L27.3956 40.4943C28.3052 40.1039 29.1782 39.6446 30.008 39.123L3.79381 12.9088C3.27219 13.7386 2.81291 14.6116 2.42255 15.5212Z" fill="white"/>
<path d="M5.4856 10.6172C8.97251 6.56555 14.1381 4 19.903 4C30.404 4 38.9167 12.5127 38.9167 23.0137C38.9167 28.7786 36.3512 33.9442 32.2995 37.4311L5.4856 10.6172Z" fill="white"/>
<path d="M58.7267 34.3999H72.6585V30.6061H63.3281V12.6363H58.7267V34.3999ZM75.6206 34.3999H80.1477V18.0772H75.6206V34.3999ZM77.8947 16.1431C79.2126 16.1431 80.3496 15.1442 80.3496 13.8477C80.3496 12.5619 79.2126 11.563 77.8947 11.563C76.5877 11.563 75.4507 12.5619 75.4507 13.8477C75.4507 15.1442 76.5877 16.1431 77.8947 16.1431ZM88.3011 24.9633C88.3116 22.8593 89.5656 21.6265 91.3934 21.6265C93.2107 21.6265 94.3053 22.8167 94.2946 24.8146V34.3999H98.8216V24.0069C98.8216 20.2026 96.59 17.8647 93.1894 17.8647C90.7665 17.8647 89.013 19.0549 88.2799 20.9571H88.0885V18.0772H83.774V34.3999H88.3011V24.9633ZM109.871 34.7188C113.92 34.7188 116.629 32.7527 117.267 29.7242L113.091 29.4478C112.634 30.6912 111.454 31.3394 109.956 31.3394C107.692 31.3394 106.258 29.841 106.258 27.4075V27.3969H117.373V26.1535C117.373 20.6064 114.015 17.8647 109.701 17.8647C104.897 17.8647 101.784 21.2759 101.784 26.313C101.784 31.4882 104.855 34.7188 109.871 34.7188ZM106.258 24.5914C106.343 22.7317 107.767 21.244 109.775 21.244C111.73 21.244 113.091 22.6467 113.112 24.5914H106.258ZM125.046 34.7082C127.458 34.7082 129.02 33.6561 129.817 32.1364H129.945V34.3999H134.238V23.3906C134.238 19.5012 130.912 17.8647 127.384 17.8647C123.367 17.8647 120.827 19.735 120.2 22.7105L124.387 23.0505C124.695 21.9666 125.662 21.1696 127.288 21.1696C128.85 21.1696 129.7 21.9347 129.711 23.3056C129.722 24.3789 128.595 24.5383 125.758 24.8146C122.527 25.1121 119.626 26.1961 119.626 29.841C119.626 33.0716 121.932 34.7082 125.046 34.7082ZM126.342 31.5838C124.95 31.5838 123.951 30.9356 123.951 29.6922C123.951 28.4171 125.003 27.79 126.597 27.5669C127.586 27.4288 129.201 27.195 129.743 26.8337V28.5659C129.743 30.2768 128.329 31.5838 126.342 31.5838ZM137.75 34.3999H142.277V25.1653C142.288 23.1674 143.733 21.7966 145.561 21.7966C146.177 21.7966 146.677 21.9666 147.102 22.1791L148.462 18.4385C147.867 18.0772 147.102 17.8434 146.23 17.8434C144.392 17.8434 142.904 18.9061 142.309 20.9252H142.139V18.0772H137.75V34.3999Z" fill="white"/>
</svg>
