<svg width="196" height="50" viewBox="0 0 196 50" fill="none" xmlns="http://www.w3.org/2000/svg">
<g clip-path="url(#clip0_99_215)">
<path d="M56.8764 22.085V32.0983H59.3731C60.0102 32.0889 60.639 31.9517 61.2222 31.695C61.8055 31.4382 62.3313 31.0672 62.7686 30.6036C63.6661 29.6534 64.1572 28.3903 64.1372 27.0834C64.1562 26.4342 64.0468 25.7877 63.8152 25.181C63.5836 24.5742 63.2344 24.0192 62.7877 23.5479C62.3486 23.0837 61.8191 22.7144 61.2318 22.4626C60.6446 22.2108 60.012 22.0818 59.3731 22.0837H56.8777L56.8764 22.085ZM59.3731 18.9454C64.0264 18.9454 67.5467 22.551 67.5467 27.0834C67.5467 31.6158 64.0264 35.2417 59.3731 35.2417H53.8667C53.8142 35.2411 53.7624 35.2301 53.7141 35.2094C53.6659 35.1886 53.6222 35.1586 53.5855 35.121C53.5489 35.0835 53.52 35.039 53.5005 34.9902C53.481 34.9415 53.4714 34.8894 53.472 34.8369V19.3668C53.472 19.1428 53.649 18.9607 53.8667 18.9607L59.3731 18.9454V18.9454ZM79.541 32.4472C81.6545 32.4535 83.5629 31.1536 84.3764 29.1535C84.775 28.1763 84.8815 27.1044 84.6831 26.0679C84.4847 25.0313 83.9899 24.0746 83.2586 23.3136C82.5402 22.5651 81.6116 22.0522 80.5955 21.8426C79.5794 21.633 78.5236 21.7366 77.5676 22.1398C75.6146 22.9648 74.3389 24.9165 74.3351 27.0834C74.3351 30.0371 76.6624 32.4332 79.5423 32.4472H79.541ZM79.5423 18.5762C84.4401 18.5762 88.1844 22.4364 88.1844 27.0834C88.1844 31.7304 84.4401 35.5906 79.541 35.5906C74.6432 35.5906 70.9307 31.7495 70.9307 27.0834C70.9307 22.4173 74.6751 18.5762 79.541 18.5762H79.5423ZM100.082 32.4472C102.963 32.4395 105.294 30.0409 105.292 27.0872C105.288 24.131 102.952 21.7374 100.072 21.7362C97.1894 21.7362 94.8519 24.1284 94.8481 27.0834C94.8481 28.5068 95.3994 29.8716 96.381 30.8774C96.8614 31.373 97.4364 31.7673 98.0719 32.037C98.7073 32.3066 99.3904 32.4461 100.081 32.4472H100.082ZM100.081 18.5762C104.963 18.5762 108.708 22.4173 108.708 27.0834C108.708 31.7495 104.948 35.5906 100.081 35.5906C95.2148 35.5906 91.4386 31.7495 91.4386 27.0834C91.4386 22.4173 95.1829 18.5762 100.081 18.5762ZM120.128 22.085H116.607V26.3946H120.128C120.406 26.407 120.684 26.3621 120.944 26.2629C121.204 26.1637 121.441 26.0123 121.64 25.8179C122.048 25.4232 122.279 24.8758 122.284 24.3003C122.295 24.0083 122.246 23.7173 122.141 23.4447C122.036 23.1721 121.877 22.9236 121.673 22.7139C121.474 22.5077 121.233 22.3455 120.967 22.2378C120.7 22.1302 120.415 22.0794 120.128 22.0888V22.085ZM113.202 19.3668C113.202 19.1428 113.38 18.9607 113.598 18.9607H120.226C123.386 18.9607 125.672 21.3351 125.672 24.3168C125.696 26.3335 124.595 28.1859 122.837 29.0886L125.894 34.6306C125.936 34.6943 125.96 34.7685 125.963 34.8449C125.965 34.9213 125.947 34.997 125.909 35.0635C125.872 35.129 125.817 35.1825 125.751 35.2177C125.685 35.2529 125.61 35.2683 125.535 35.2621H122.852C122.778 35.2632 122.705 35.2432 122.641 35.2044C122.578 35.1657 122.526 35.1097 122.493 35.0431L119.547 29.5584H116.595V34.8241C116.596 34.8767 116.586 34.929 116.567 34.9779C116.547 35.0268 116.518 35.0714 116.482 35.1091C116.445 35.1469 116.401 35.177 116.353 35.1978C116.305 35.2186 116.253 35.2296 116.2 35.2303H113.616C113.563 35.2296 113.511 35.2186 113.463 35.1978C113.414 35.177 113.371 35.1469 113.334 35.1091C113.297 35.0714 113.268 35.0268 113.249 34.9779C113.23 34.929 113.22 34.8767 113.221 34.8241L113.203 19.3681L113.202 19.3668ZM134.549 22.1614V32.176H137.044C137.681 32.1674 138.31 32.0311 138.893 31.7752C139.477 31.5194 140.003 31.1491 140.441 30.6864C141.339 29.7373 141.831 28.4751 141.812 27.1687C141.832 26.5187 141.724 25.8712 141.493 25.2633C141.262 24.6554 140.913 24.0992 140.466 23.6268C140.026 23.1619 139.496 22.7921 138.908 22.5402C138.319 22.2884 137.685 22.1599 137.045 22.1627L134.549 22.1614V22.1614ZM137.044 19.018C141.697 19.018 145.218 22.6274 145.218 27.1687C145.218 31.71 141.697 35.3194 137.044 35.3194H131.554C131.502 35.3187 131.45 35.3077 131.401 35.2869C131.353 35.2661 131.309 35.236 131.273 35.1983C131.236 35.1605 131.207 35.1159 131.188 35.067C131.168 35.0181 131.159 34.9659 131.16 34.9133V19.4445C131.16 19.2192 131.337 19.0371 131.554 19.0371L137.045 19.018H137.044ZM155.601 23.0004L153.67 28.3553H157.529L155.601 23.0004V23.0004ZM152.537 31.3815L151.273 34.9464C151.247 35.0302 151.195 35.1033 151.123 35.154C151.052 35.2047 150.966 35.2302 150.878 35.2264H148.136C148.066 35.233 147.996 35.2206 147.932 35.1905C147.869 35.1605 147.815 35.114 147.775 35.0558C147.735 34.997 147.711 34.9288 147.705 34.8579C147.699 34.787 147.711 34.7157 147.741 34.651L153.666 19.1962C153.694 19.1147 153.747 19.0445 153.819 18.9962C153.89 18.948 153.975 18.9243 154.061 18.9289H157.129C157.215 18.924 157.301 18.9476 157.372 18.9958C157.444 19.0441 157.497 19.1145 157.525 19.1962L163.45 34.651C163.48 34.7158 163.492 34.7872 163.486 34.8581C163.479 34.929 163.455 34.9971 163.415 35.0558C163.375 35.1138 163.321 35.16 163.258 35.1898C163.194 35.2196 163.124 35.2318 163.054 35.2252H160.313C160.226 35.2289 160.14 35.2034 160.068 35.1527C159.997 35.102 159.944 35.029 159.919 34.9451L158.654 31.3803H152.537V31.3815ZM166.629 23.348C166.629 20.7889 168.786 18.5762 172.192 18.5762C174.026 18.5353 175.802 19.2213 177.132 20.4847C177.172 20.523 177.204 20.5692 177.227 20.6204C177.249 20.6716 177.26 20.7268 177.26 20.7826C177.26 20.8384 177.249 20.8935 177.227 20.9448C177.204 20.996 177.172 21.0422 177.132 21.0805L175.613 22.6274C175.576 22.665 175.533 22.6948 175.485 22.7152C175.437 22.7357 175.385 22.7462 175.333 22.7462C175.28 22.7462 175.229 22.7357 175.181 22.7152C175.132 22.6948 175.089 22.665 175.053 22.6274C174.337 21.9568 173.398 21.5769 172.417 21.5617C171.055 21.5617 170.048 22.3727 170.048 23.3085C170.048 26.3335 178.098 24.588 178.098 30.4089C178.094 33.3587 175.921 35.5906 172.079 35.5906C171.012 35.6015 169.953 35.3977 168.967 34.9913C167.98 34.585 167.085 33.9843 166.335 33.2251C166.295 33.1867 166.263 33.1406 166.24 33.0893C166.218 33.0381 166.207 32.9829 166.207 32.9271C166.207 32.8714 166.218 32.8162 166.24 32.765C166.263 32.7137 166.295 32.6675 166.335 32.6292L167.805 31.1218C167.841 31.0824 167.885 31.051 167.935 31.0295C167.984 31.008 168.037 30.9969 168.091 30.9969C168.145 30.9969 168.198 31.008 168.247 31.0295C168.297 31.051 168.341 31.0824 168.378 31.1218C169.302 32.0384 170.547 32.5589 171.849 32.5732C173.552 32.5732 174.673 31.6413 174.673 30.4738C174.673 27.4475 166.627 29.1943 166.627 23.3722L166.629 23.348ZM192.696 19.3465V25.4627H185.882V19.3465C185.883 19.294 185.873 19.2419 185.854 19.1931C185.834 19.1443 185.805 19.0999 185.769 19.0623C185.732 19.0247 185.688 18.9947 185.64 18.974C185.592 18.9533 185.54 18.9423 185.487 18.9416H182.903C182.85 18.9423 182.799 18.9533 182.75 18.974C182.702 18.9947 182.658 19.0247 182.622 19.0623C182.585 19.0999 182.556 19.1443 182.537 19.1931C182.517 19.2419 182.508 19.294 182.508 19.3465V34.7987C182.508 35.0227 182.686 35.2048 182.903 35.2048H185.487C185.704 35.2048 185.882 35.0227 185.882 34.7987V28.5857H192.691V34.7987C192.691 35.0227 192.869 35.2048 193.085 35.2048H195.67C195.888 35.2048 196.065 35.0227 196.065 34.7987V19.3465C196.065 19.294 196.056 19.2419 196.036 19.1931C196.017 19.1443 195.988 19.0999 195.951 19.0623C195.915 19.0247 195.871 18.9947 195.823 18.974C195.774 18.9533 195.722 18.9423 195.67 18.9416H193.085C192.98 18.9443 192.88 18.9883 192.808 19.0641C192.735 19.1398 192.695 19.2413 192.696 19.3465V19.3465ZM38.9645 21.0041C37.1719 17.6812 33.6644 15.6123 29.85 15.6251H0.99032C0.795423 15.6258 0.605067 15.684 0.442971 15.7922C0.280875 15.9004 0.154206 16.0539 0.0787463 16.2336C0.00438993 16.4122 -0.0149757 16.6088 0.0231296 16.7985C0.061235 16.9881 0.155077 17.162 0.292635 17.298L6.57944 23.5364C7.13453 24.0889 7.89078 24.3983 8.67759 24.3983H29.0225C30.4726 24.383 31.6579 25.5314 31.6732 26.9612C31.6885 28.3909 30.5261 29.5622 29.076 29.5762H15.0497C14.8547 29.5763 14.664 29.6338 14.5014 29.7416C14.3388 29.8494 14.2116 30.0026 14.1356 30.1822C14.0605 30.361 14.0406 30.5581 14.0785 30.7482C14.1164 30.9384 14.2103 31.1128 14.3482 31.2491L20.6388 37.4927C21.1974 38.0449 21.9515 38.3542 22.737 38.3533H29.0811C37.3349 38.3533 43.5759 29.645 38.9645 21.0003" fill="white"/>
</g>
<defs>
<clipPath id="clip0_99_215">
<rect width="195.833" height="50" fill="white"/>
</clipPath>
</defs>
</svg>
