<svg width="116" height="50" viewBox="0 0 116 50" fill="none" xmlns="http://www.w3.org/2000/svg">
<g clip-path="url(#clip0_99_194)">
<path fill-rule="evenodd" clip-rule="evenodd" d="M71.474 39.3822C64.8452 44.268 55.2373 46.8748 46.9651 46.8748C35.3661 46.8748 24.924 42.5848 17.0241 35.4496C16.4035 34.8885 16.9596 34.1239 17.7044 34.5608C26.2299 39.5212 36.7713 42.5054 47.6602 42.5054C55.004 42.5054 63.0825 40.986 70.5107 37.833C71.6328 37.3563 72.5713 38.5678 71.474 39.3822Z" fill="white"/>
<path fill-rule="evenodd" clip-rule="evenodd" d="M74.2298 36.2292C73.3857 35.1468 68.6289 35.7178 66.4938 35.971C65.8434 36.0505 65.7441 35.4844 66.33 35.0773C70.1185 32.4109 76.3351 33.1805 77.06 34.0743C77.785 34.973 76.8713 41.2045 73.3112 44.1787C72.765 44.6355 72.2437 44.3922 72.487 43.7864C73.2864 41.7904 75.0789 37.3166 74.2298 36.2292Z" fill="white"/>
<path fill-rule="evenodd" clip-rule="evenodd" d="M66.6431 16.2538V13.6619C66.6431 13.2696 66.941 13.0065 67.2985 13.0065H78.9025C79.2749 13.0065 79.5728 13.2746 79.5728 13.6619V15.8814C79.5678 16.2538 79.255 16.7404 78.6989 17.51L72.6859 26.0951C74.9203 26.0405 77.2788 26.3731 79.3046 27.5152C79.7615 27.7734 79.8856 28.1507 79.9203 28.5231V31.2888C79.9203 31.6662 79.5033 32.1081 79.0663 31.8797C75.4962 30.0077 70.7544 29.8042 66.8069 31.8995C66.4047 32.118 65.9827 31.6811 65.9827 31.3037V28.677C65.9827 28.255 65.9876 27.535 66.4097 26.8945L73.376 16.9042H67.3134C66.941 16.9042 66.6431 16.6411 66.6431 16.2538Z" fill="white"/>
<path fill-rule="evenodd" clip-rule="evenodd" d="M24.3136 32.4259H20.7832C20.4456 32.4011 20.1775 32.1478 20.1526 31.8251V13.7066C20.1526 13.3441 20.4555 13.0562 20.8329 13.0562H24.1249C24.4675 13.071 24.7406 13.3342 24.7654 13.6619V16.0304H24.83C25.689 13.7414 27.3027 12.6738 29.4775 12.6738C31.6871 12.6738 33.0675 13.7414 34.0605 16.0304C34.9146 13.7414 36.856 12.6738 38.9365 12.6738C40.4162 12.6738 42.0349 13.2846 43.023 14.655C44.1402 16.1793 43.9118 18.3939 43.9118 20.3353L43.9068 31.7705C43.9068 32.1329 43.6039 32.4259 43.2265 32.4259H39.7012C39.3486 32.4011 39.0656 32.118 39.0656 31.7705V22.1675C39.0656 21.4029 39.1351 19.4962 38.9663 18.7712C38.7031 17.5547 37.9136 17.2121 36.8908 17.2121C36.0367 17.2121 35.143 17.7831 34.7805 18.6968C34.418 19.6104 34.4528 21.1397 34.4528 22.1675V31.7705C34.4528 32.1329 34.1499 32.4259 33.7725 32.4259H30.2472C29.8897 32.4011 29.6116 32.118 29.6116 31.7705L29.6066 22.1675C29.6066 20.1466 29.9393 17.1724 27.4318 17.1724C24.8945 17.1724 24.9938 20.0722 24.9938 22.1675V31.7705C24.9938 32.1329 24.691 32.4259 24.3136 32.4259Z" fill="white"/>
<path fill-rule="evenodd" clip-rule="evenodd" d="M89.5629 12.6738C94.8013 12.6738 97.6365 17.1724 97.6365 22.8925C97.6365 28.4189 94.5034 32.8033 89.5629 32.8033C84.4188 32.8033 81.6184 28.3047 81.6184 22.6988C81.6184 17.0582 84.4536 12.6738 89.5629 12.6738ZM89.5927 16.373C86.9908 16.373 86.827 19.9182 86.827 22.1278C86.827 24.3423 86.7922 29.0693 89.5629 29.0693C92.2988 29.0693 92.4279 25.256 92.4279 22.9322C92.4279 21.4029 92.3633 19.5756 91.9015 18.1258C91.5043 16.8646 90.7148 16.373 89.5927 16.373Z" fill="white"/>
<path fill-rule="evenodd" clip-rule="evenodd" d="M104.429 32.4259H100.914C100.561 32.4011 100.278 32.118 100.278 31.7705L100.273 13.647C100.303 13.3144 100.596 13.0562 100.953 13.0562H104.226C104.533 13.071 104.787 13.2796 104.856 13.5626V16.3333H104.921C105.909 13.8556 107.294 12.6738 109.732 12.6738C111.316 12.6738 112.86 13.2448 113.853 14.8089C114.777 16.2588 114.777 18.6968 114.777 20.4495V31.8549C114.737 32.1727 114.444 32.4259 114.097 32.4259H110.556C110.234 32.4011 109.966 32.1627 109.931 31.8549V22.0136C109.931 20.0324 110.159 17.1327 107.721 17.1327C106.862 17.1327 106.073 17.7087 105.68 18.5826C105.184 19.6898 105.119 20.7921 105.119 22.0136V31.7705C105.114 32.1329 104.807 32.4259 104.429 32.4259Z" fill="white"/>
<path fill-rule="evenodd" clip-rule="evenodd" d="M57.3927 23.7713C57.3927 25.1467 57.4274 26.2937 56.7323 27.5152C56.1712 28.5082 55.2774 29.119 54.2893 29.119C52.9338 29.119 52.1394 28.0862 52.1394 26.5618C52.1394 23.5528 54.8355 23.0066 57.3927 23.0066V23.7713ZM60.9528 32.3762C60.7194 32.5848 60.3818 32.5997 60.1186 32.4606C58.9468 31.4874 58.7333 31.0356 58.0928 30.1071C56.1563 32.0833 54.7809 32.6741 52.2734 32.6741C49.2992 32.6741 46.9903 30.8419 46.9903 27.1726C46.9903 24.3076 48.5395 22.3562 50.754 21.4028C52.6706 20.5587 55.347 20.4098 57.3927 20.1764V19.7196C57.3927 18.8804 57.4572 17.8874 56.9607 17.1624C56.5337 16.512 55.7094 16.2439 54.9795 16.2439C53.6339 16.2439 52.4373 16.934 52.1443 18.3641C52.0847 18.6818 51.8514 18.9947 51.5286 19.0095L48.1075 18.6421C47.8195 18.5776 47.4968 18.3442 47.5812 17.9023C48.3657 13.7513 52.1195 12.5 55.4761 12.5C57.1941 12.5 59.4384 12.9568 60.7939 14.2577C62.5119 15.8615 62.3481 18.0016 62.3481 20.3303V25.8319C62.3481 27.4854 63.0333 28.2103 63.6788 29.1041C63.9022 29.4218 63.9519 29.8042 63.6639 30.0425C62.9439 30.6433 61.6628 31.7605 60.9578 32.3861L60.9528 32.3762Z" fill="white"/>
<path fill-rule="evenodd" clip-rule="evenodd" d="M11.1107 23.7713C11.1107 25.1467 11.1455 26.2937 10.4503 27.5151C9.88926 28.5082 9.00047 29.119 8.0074 29.119C6.65187 29.119 5.86238 28.0862 5.86238 26.5618C5.86238 23.5528 8.55855 23.0066 11.1107 23.0066V23.7713ZM14.6709 32.3762C14.4375 32.5847 14.0999 32.5996 13.8367 32.4606C12.6649 31.4874 12.4563 31.0356 11.8108 30.1071C9.87436 32.0833 8.50394 32.6741 5.99148 32.6741C3.02221 32.6741 0.708374 30.8419 0.708374 27.1725C0.708374 24.3075 2.26252 22.3562 4.47209 21.4028C6.38871 20.5587 9.06502 20.4098 11.1107 20.1764V19.7196C11.1107 18.8804 11.1753 17.8874 10.6837 17.1624C10.2517 16.512 9.42749 16.2439 8.70255 16.2439C7.35695 16.2439 6.15534 16.934 5.86238 18.3641C5.8028 18.6818 5.56943 18.9946 5.25165 19.0095L1.82557 18.6421C1.53758 18.5776 1.2198 18.3442 1.29925 17.9023C2.08873 13.7513 5.83755 12.5 9.19412 12.5C10.9121 12.5 13.1564 12.9568 14.512 14.2577C16.23 15.8615 16.0661 18.0016 16.0661 20.3303V25.8319C16.0661 27.4854 16.7513 28.2103 17.3968 29.1041C17.6252 29.4218 17.6749 29.8042 17.3869 30.0425C16.6669 30.6433 15.3859 31.7605 14.6808 32.3861L14.6709 32.3762Z" fill="white"/>
</g>
<defs>
<clipPath id="clip0_99_194">
<rect width="114.583" height="50" fill="white" transform="translate(0.708374)"/>
</clipPath>
</defs>
</svg>
