<svg width="144" height="48" viewBox="0 0 144 48" fill="none" xmlns="http://www.w3.org/2000/svg">
<g clip-path="url(#clip0_99_221)">
<path d="M54.046 12.7715H46.1708C45.6318 12.7715 45.1735 13.163 45.0895 13.695L41.9044 33.8891C41.8411 34.2875 42.1497 34.6468 42.5538 34.6468H46.3135C46.8524 34.6468 47.3107 34.2553 47.3948 33.7222L48.2538 28.2755C48.3367 27.7423 48.7962 27.3508 49.334 27.3508H51.827C57.0146 27.3508 60.0085 24.8405 60.7904 19.866C61.1427 17.6896 60.8053 15.9796 59.7863 14.782C58.667 13.467 56.6818 12.7715 54.046 12.7715ZM54.9545 20.1469C54.5238 22.9728 52.3647 22.9728 50.277 22.9728H49.0887L49.9224 17.6954C49.9719 17.3764 50.2483 17.1415 50.5707 17.1415H51.1154C52.5375 17.1415 53.879 17.1415 54.5722 17.9522C54.9856 18.4358 55.1123 19.1543 54.9545 20.1469Z" fill="white"/>
<path d="M77.5866 20.056H73.8154C73.4941 20.056 73.2166 20.2909 73.1671 20.6098L73.0001 21.6646L72.7364 21.2823C71.92 20.0974 70.0994 19.7013 68.2823 19.7013C64.115 19.7013 60.5557 22.8576 59.8624 27.2852C59.502 29.4938 60.0144 31.6057 61.2673 33.0784C62.4165 34.4326 64.0609 34.9969 66.0173 34.9969C69.3751 34.9969 71.2371 32.8378 71.2371 32.8378L71.069 33.8857C71.0057 34.2864 71.3143 34.6457 71.7161 34.6457H75.1131C75.6532 34.6457 76.1092 34.2541 76.1944 33.721L78.2326 20.8137C78.297 20.4164 77.9896 20.056 77.5866 20.056ZM72.3299 27.3957C71.966 29.5502 70.256 30.9965 68.0751 30.9965C66.98 30.9965 66.1048 30.6453 65.5429 29.9797C64.9855 29.3187 64.7737 28.378 64.951 27.3301C65.2907 25.194 67.0295 23.7005 69.1771 23.7005C70.248 23.7005 71.1185 24.0563 71.692 24.7277C72.2666 25.4059 72.4946 26.3524 72.3299 27.3957Z" fill="white"/>
<path d="M97.6712 20.0559H93.8816C93.52 20.0559 93.1803 20.2355 92.9754 20.5361L87.7486 28.2351L85.5331 20.8366C85.3938 20.3737 84.9666 20.0559 84.4829 20.0559H80.7589C80.3064 20.0559 79.992 20.4981 80.136 20.9242L84.3102 33.174L80.3858 38.7139C80.0772 39.1503 80.3882 39.7503 80.9213 39.7503H84.7063C85.0656 39.7503 85.4018 39.5752 85.6057 39.2805L98.2102 21.0865C98.5119 20.6512 98.2021 20.0559 97.6712 20.0559Z" fill="white"/>
<path d="M110.218 12.7717H102.342C101.804 12.7717 101.346 13.1632 101.262 13.6952L98.0765 33.8894C98.0132 34.2878 98.3218 34.6471 98.7237 34.6471H102.765C103.141 34.6471 103.462 34.373 103.521 33.9999L104.425 28.2757C104.508 27.7426 104.967 27.3511 105.505 27.3511H107.997C113.186 27.3511 116.178 24.8408 116.961 19.8662C117.315 17.6899 116.975 15.9798 115.956 14.7823C114.838 13.4672 112.854 12.7717 110.218 12.7717ZM111.127 20.1472C110.697 22.973 108.538 22.973 106.449 22.973H105.262L106.097 17.6956C106.146 17.3766 106.42 17.1417 106.744 17.1417H107.289C108.71 17.1417 110.052 17.1417 110.745 17.9524C111.159 18.436 111.284 19.1546 111.127 20.1472Z" fill="white"/>
<path d="M133.757 20.0562H129.989C129.665 20.0562 129.39 20.2911 129.341 20.6101L129.174 21.6649L128.91 21.2826C128.093 20.0977 126.274 19.7015 124.457 19.7015C120.289 19.7015 116.731 22.8578 116.038 27.2854C115.679 29.494 116.189 31.6059 117.442 33.0787C118.593 34.4329 120.235 34.9971 122.192 34.9971C125.549 34.9971 127.411 32.838 127.411 32.838L127.243 33.8859C127.18 34.2866 127.489 34.6459 127.893 34.6459H131.289C131.826 34.6459 132.285 34.2544 132.369 33.7212L134.408 20.8139C134.47 20.4166 134.162 20.0562 133.757 20.0562ZM128.501 27.396C128.139 29.5504 126.427 30.9967 124.246 30.9967C123.153 30.9967 122.276 30.6455 121.714 29.98C121.156 29.319 120.947 28.3782 121.122 27.3303C121.464 25.1943 123.2 23.7007 125.348 23.7007C126.419 23.7007 127.289 24.0566 127.863 24.7279C128.44 25.4061 128.668 26.3527 128.501 27.396Z" fill="white"/>
<path d="M138.203 13.3255L134.971 33.8893C134.908 34.2877 135.216 34.647 135.618 34.647H138.868C139.408 34.647 139.866 34.2555 139.949 33.7223L143.136 13.5294C143.2 13.1309 142.891 12.7705 142.489 12.7705H138.85C138.529 12.7717 138.253 13.0066 138.203 13.3255Z" fill="white"/>
<path d="M9.2002 38.5713L9.80245 34.746L8.46093 34.7149H2.05505L6.50681 6.48781C6.52063 6.40259 6.56554 6.32314 6.63117 6.26671C6.69681 6.21029 6.78087 6.1792 6.86839 6.1792H17.6696C21.2554 6.1792 23.73 6.92538 25.022 8.39817C25.6277 9.08908 26.0135 9.81108 26.2 10.6056C26.3958 11.4393 26.3992 12.4354 26.2081 13.6502L26.1943 13.7389V14.5173L26.8 14.8605C27.3101 15.1311 27.7154 15.4408 28.0263 15.7955C28.5445 16.3862 28.8796 17.137 29.0212 18.0271C29.1675 18.9426 29.1191 20.0319 28.8796 21.2652C28.6032 22.6839 28.1564 23.9194 27.5531 24.9305C26.998 25.862 26.291 26.6347 25.4515 27.2335C24.6501 27.8024 23.6978 28.2342 22.6211 28.5105C21.5778 28.7823 20.3883 28.9193 19.0837 28.9193H18.2431C17.642 28.9193 17.0581 29.1358 16.5998 29.5239C16.1404 29.92 15.8364 30.4612 15.7431 31.0531L15.6798 31.3974L14.6158 38.1395L14.5674 38.3871C14.5547 38.4654 14.5329 38.5045 14.5006 38.531C14.4718 38.5552 14.4304 38.5713 14.3901 38.5713H9.2002Z" fill="white"/>
<path d="M27.3735 13.8286C27.3413 14.0347 27.3044 14.2455 27.263 14.4619C25.8385 21.7752 20.9653 24.3016 14.7414 24.3016H11.5724C10.8113 24.3016 10.1699 24.8544 10.0513 25.6052L8.42879 35.8951L7.96933 38.8119C7.89218 39.3047 8.27218 39.7492 8.76963 39.7492H14.3902C15.0558 39.7492 15.6211 39.2656 15.7259 38.6092L15.7812 38.3236L16.8395 31.608L16.9074 31.2395C17.011 30.5809 17.5776 30.0972 18.2431 30.0972H19.0838C24.5293 30.0972 28.7922 27.8863 30.0381 21.4885C30.5586 18.8158 30.2891 16.5842 28.9119 15.0147C28.4951 14.5414 27.9781 14.1487 27.3735 13.8286Z" fill="white"/>
<path d="M25.8833 13.2344C25.6657 13.1711 25.4411 13.1135 25.2108 13.0617C24.9794 13.011 24.7422 12.9661 24.4981 12.927C23.6436 12.7888 22.7074 12.7231 21.7045 12.7231H13.2385C13.0301 12.7231 12.8321 12.7704 12.6547 12.8556C12.2644 13.0433 11.9742 13.4129 11.9039 13.8654L10.103 25.2724L10.0511 25.6051C10.1698 24.8544 10.8111 24.3016 11.5723 24.3016H14.7413C20.9652 24.3016 25.8384 21.7741 27.2628 14.4619C27.3054 14.2454 27.3411 14.0347 27.3734 13.8286C27.013 13.6374 26.6226 13.4739 26.2023 13.3346C26.0987 13.3001 25.9916 13.2667 25.8833 13.2344Z" fill="white"/>
<path d="M11.904 13.8655C11.9743 13.413 12.2645 13.0433 12.6548 12.8568C12.8333 12.7716 13.0302 12.7244 13.2386 12.7244H21.7046C22.7075 12.7244 23.6437 12.79 24.4981 12.9282C24.7423 12.9673 24.9795 13.0122 25.2109 13.0629C25.4412 13.1147 25.6658 13.1723 25.8834 13.2356C25.9917 13.2679 26.0988 13.3013 26.2035 13.3347C26.6238 13.474 27.0142 13.6387 27.3746 13.8287C27.7984 11.1261 27.3712 9.28594 25.9099 7.6197C24.2989 5.78533 21.3914 5 17.6708 5H6.8696C6.1096 5 5.4613 5.55273 5.34385 6.30467L0.844876 34.8219C0.75621 35.3862 1.19148 35.8952 1.76033 35.8952H8.42875L10.1031 25.2724L11.904 13.8655Z" fill="white"/>
</g>
<defs>
<clipPath id="clip0_99_221">
<rect width="143" height="48" fill="white" transform="translate(0.833374)"/>
</clipPath>
</defs>
</svg>
