<svg width="195" height="42" viewBox="0 0 195 42" fill="none" xmlns="http://www.w3.org/2000/svg">
<path d="M25.1055 19.1861C24.6891 19.6107 24.3702 20.1233 24.1716 20.687C23.9729 21.2509 23.8994 21.8521 23.9562 22.4481L23.9364 22.428C23.9949 23.1295 23.9015 23.8354 23.6629 24.4966C23.4244 25.1577 23.0464 25.7581 22.5554 26.2559C22.0642 26.7536 21.4719 27.1368 20.8195 27.3785C20.1673 27.6203 19.4708 27.7149 18.7788 27.6557L18.7985 27.6757C17.9707 27.5977 17.1393 27.7802 16.4175 28.1986C15.6958 28.617 15.119 29.2508 14.7657 30.0137C14.4125 30.7766 14.2998 31.6312 14.4433 32.4614C14.5869 33.2914 14.9795 34.0564 15.5677 34.652C16.1559 35.2476 16.911 35.6449 17.73 35.7895C18.5491 35.9343 19.3922 35.8194 20.1445 35.4607C20.8969 35.1018 21.5216 34.5167 21.9338 33.7848C22.3459 33.0529 22.5254 32.21 22.4476 31.371L22.4685 31.391C22.41 30.6896 22.5033 29.9836 22.7418 29.3224C22.9804 28.6614 23.3585 28.061 23.8495 27.5631C24.3407 27.0654 24.933 26.6822 25.5852 26.4405C26.2376 26.1988 26.934 26.1041 27.6261 26.1633L27.6052 26.1433C28.2814 26.2049 28.9621 26.0925 29.5841 25.8165C30.206 25.5406 30.7493 25.1099 31.1633 24.5645C31.5773 24.0192 31.8489 23.3766 31.9526 22.6965C32.0565 22.0164 31.9892 21.3208 31.7572 20.674C31.5251 20.0273 31.1357 19.4504 30.6251 18.9968C30.1145 18.5431 29.4992 18.2275 28.8362 18.0792C28.1732 17.9308 27.4839 17.9545 26.8323 18.1479C26.1808 18.3415 25.588 18.6985 25.1088 19.1861H25.1055Z" fill="#3E444D"/>
<path d="M16.9998 25.0497L16.9789 25.0296C17.5671 25.0896 18.1611 25.0165 18.718 24.8153C19.2749 24.6142 19.7808 24.2902 20.199 23.8667C20.617 23.4432 20.9372 22.9306 21.136 22.3663C21.3349 21.802 21.4075 21.2001 21.3487 20.6038L21.3696 20.6239C21.3111 19.9223 21.4045 19.2165 21.643 18.5553C21.8815 17.8942 22.2596 17.2938 22.7506 16.796C23.2418 16.2983 23.8341 15.9151 24.4864 15.6734C25.1387 15.4316 25.8351 15.337 26.5272 15.3962L26.5064 15.3761C27.3343 15.455 28.166 15.273 28.8881 14.855C29.6103 14.4371 30.1876 13.8036 30.5414 13.0408C30.8952 12.2781 31.0083 11.4233 30.8652 10.5931C30.7221 9.7628 30.3299 8.99749 29.7418 8.40151C29.1539 7.80555 28.3988 7.40791 27.5796 7.26289C26.7605 7.11785 25.9172 7.23246 25.1646 7.59109C24.4121 7.94971 23.7871 8.5349 23.3747 9.26683C22.9624 9.99875 22.7828 10.8418 22.8606 11.6809L22.8409 11.6598C22.8994 12.3613 22.8062 13.0673 22.5678 13.7285C22.3294 14.3897 21.9513 14.9902 21.4602 15.4881C20.9691 15.9858 20.3766 16.369 19.7243 16.6107C19.0718 16.8523 18.3753 16.9468 17.6832 16.8874L17.703 16.9086C17.1148 16.8486 16.5207 16.9217 15.9638 17.1229C15.407 17.3239 14.9011 17.648 14.4829 18.0715C14.0647 18.495 13.7446 19.0076 13.5458 19.5719C13.347 20.1362 13.2744 20.7381 13.3332 21.3344L13.3134 21.3143C13.3716 22.0157 13.2781 22.7216 13.0396 23.3827C12.8009 24.0437 12.4229 24.6441 11.9319 25.1418C11.4408 25.6395 10.8485 26.0226 10.1963 26.2645C9.54414 26.5063 8.84775 26.601 8.15573 26.542L8.17551 26.562C7.3476 26.4832 6.51586 26.6652 5.79374 27.0831C5.07162 27.5011 4.49427 28.1346 4.14045 28.8973C3.78663 29.6601 3.67354 30.5149 3.81663 31.3451C3.95973 32.1754 4.35203 32.9407 4.94002 33.5366C5.52802 34.1327 6.28308 34.5303 7.10222 34.6753C7.92137 34.8203 8.76471 34.7057 9.51723 34.3471C10.2697 33.9885 10.8948 33.4033 11.3071 32.6714C11.7195 31.9394 11.899 31.0964 11.8212 30.2573L11.8421 30.2773C11.7837 29.5758 11.8771 28.8699 12.1156 28.2088C12.354 27.5477 12.7321 26.9473 13.2232 26.4495C13.7143 25.9517 14.3067 25.5685 14.9589 25.3269C15.6112 25.0851 16.3076 24.9904 16.9998 25.0497Z" fill="#3E444D"/>
<path d="M9.63591 22.8145C10.0524 22.3899 10.3712 21.8774 10.5697 21.3136C10.7682 20.7497 10.8414 20.1483 10.7841 19.5525L10.805 19.5725C10.7465 18.8709 10.8399 18.1647 11.0786 17.5034C11.3172 16.8421 11.6955 16.2416 12.1868 15.7438C12.6782 15.246 13.2708 14.8629 13.9233 14.6213C14.5759 14.3796 15.2726 14.2853 15.9649 14.3449L15.944 14.3248C16.7716 14.4034 17.603 14.2213 18.3248 13.8034C19.0466 13.3855 19.6236 12.7521 19.9772 11.9897C20.3308 11.2272 20.4438 10.3727 20.3007 9.54273C20.1577 8.71277 19.7654 7.94776 19.1777 7.352C18.5899 6.75624 17.8351 6.35874 17.0163 6.21372C16.1975 6.06868 15.3544 6.18319 14.6022 6.5416C13.8498 6.90001 13.2249 7.48488 12.8127 8.21647C12.4003 8.94805 12.2207 9.79074 12.2982 10.6296L12.2785 10.6095C12.3369 11.311 12.2435 12.0169 12.005 12.6781C11.7664 13.3392 11.3885 13.9396 10.8974 14.4374C10.4063 14.9351 9.8139 15.3183 9.16162 15.56C8.50935 15.8018 7.81288 15.8965 7.12081 15.8372L7.14059 15.8572C6.46437 15.7958 5.78378 15.9084 5.1619 16.1845C4.54001 16.4605 3.99694 16.8913 3.58302 17.4368C3.1691 17.9822 2.89773 18.6248 2.79403 19.3048C2.69034 19.9849 2.75768 20.6805 2.98982 21.3271C3.22196 21.9739 3.61139 22.5506 4.12203 23.0041C4.63266 23.4577 5.24798 23.7732 5.91095 23.9216C6.57392 24.0698 7.26311 24.0461 7.91465 23.8527C8.56618 23.6591 9.15897 23.302 9.6381 22.8145H9.63591Z" fill="#3E444D"/>
<path d="M49 28.9767V21.0333H63.1241V22.9667H50.9564V28.9767H49ZM49 15H65.4145V16.9334H49V15Z" fill="#3E444D"/>
<path d="M71.4186 15V23.8752C71.4186 25.6223 72.8978 27.0666 74.6872 27.0666H82.8944C84.7076 27.0666 86.163 25.6223 86.163 23.8752V15H88.1432V23.8752C88.1432 26.6938 85.7813 28.9767 82.8944 28.9767H74.6872C71.8003 28.9767 69.4622 26.6938 69.4622 23.8752V15H71.4186Z" fill="#3E444D"/>
<path d="M109.362 15V16.9334H101.775V28.9767H99.7946V16.9334H92.2077V15H109.362Z" fill="#3E444D"/>
<path d="M115.395 15V23.8752C115.395 25.6223 116.874 27.0666 118.664 27.0666H126.871C128.684 27.0666 130.14 25.6223 130.14 23.8752V15H132.12V23.8752C132.12 26.6938 129.758 28.9767 126.871 28.9767H118.664C115.777 28.9767 113.439 26.6938 113.439 23.8752V15H115.395Z" fill="#3E444D"/>
<path d="M149.378 21.7787C150.738 21.7787 151.859 20.6839 151.859 19.3794C151.859 19.3561 151.859 19.3561 151.859 19.3561C151.859 18.0283 150.762 16.9334 149.378 16.9334H136.184V15H149.378C151.835 15.0233 153.839 16.9567 153.839 19.3561C153.839 21.3361 152.432 23.0832 150.452 23.5724L150.356 23.5957C150.308 23.5957 150.261 23.619 150.213 23.619L154.006 29H151.477L147.732 23.6889H138.141V29H136.184V21.7787H149.378Z" fill="#3E444D"/>
<path d="M158.068 15H160.024V28.9767H158.068V15Z" fill="#3E444D"/>
<path d="M164.084 28.9767L171.147 21.9884L164.084 15H166.828L172.53 20.6373L178.232 15H181L173.914 21.9884L181 28.9767H178.232L172.53 23.3627L166.828 28.9767H164.084Z" fill="#3E444D"/>
</svg>
