<svg width="30" height="30" viewBox="0 0 30 30" fill="none" xmlns="http://www.w3.org/2000/svg">
<path d="M23.1055 13.1861C22.6891 13.6107 22.3702 14.1233 22.1716 14.687C21.9729 15.2509 21.8994 15.8521 21.9562 16.4481L21.9364 16.428C21.9949 17.1295 21.9015 17.8354 21.6629 18.4966C21.4244 19.1577 21.0464 19.7581 20.5554 20.2559C20.0642 20.7536 19.4719 21.1368 18.8195 21.3785C18.1673 21.6203 17.4708 21.7149 16.7788 21.6557L16.7985 21.6757C15.9707 21.5977 15.1393 21.7802 14.4175 22.1986C13.6958 22.617 13.119 23.2508 12.7657 24.0137C12.4125 24.7766 12.2998 25.6312 12.4433 26.4614C12.5869 27.2914 12.9795 28.0564 13.5677 28.652C14.1559 29.2476 14.911 29.6449 15.73 29.7895C16.5491 29.9343 17.3922 29.8194 18.1445 29.4607C18.8969 29.1018 19.5216 28.5167 19.9338 27.7848C20.3459 27.0529 20.5254 26.21 20.4476 25.371L20.4685 25.391C20.41 24.6896 20.5033 23.9836 20.7418 23.3224C20.9804 22.6614 21.3585 22.061 21.8495 21.5631C22.3407 21.0654 22.933 20.6822 23.5852 20.4405C24.2376 20.1988 24.934 20.1041 25.6261 20.1633L25.6052 20.1433C26.2814 20.2049 26.9621 20.0925 27.5841 19.8165C28.206 19.5406 28.7493 19.1099 29.1633 18.5645C29.5773 18.0192 29.8489 17.3766 29.9526 16.6965C30.0565 16.0164 29.9892 15.3208 29.7572 14.674C29.5251 14.0273 29.1357 13.4504 28.6251 12.9968C28.1145 12.5431 27.4992 12.2275 26.8362 12.0792C26.1732 11.9308 25.4839 11.9545 24.8323 12.1479C24.1808 12.3415 23.588 12.6985 23.1088 13.1861H23.1055Z" fill="#3E444D"/>
<path d="M14.9998 19.0497L14.9789 19.0296C15.5671 19.0896 16.1611 19.0165 16.718 18.8153C17.2749 18.6142 17.7808 18.2902 18.199 17.8667C18.617 17.4432 18.9372 16.9306 19.136 16.3663C19.3349 15.802 19.4075 15.2001 19.3487 14.6038L19.3696 14.6239C19.3111 13.9223 19.4045 13.2165 19.643 12.5553C19.8815 11.8942 20.2596 11.2938 20.7506 10.796C21.2418 10.2983 21.8341 9.91506 22.4864 9.67339C23.1387 9.43156 23.8351 9.33698 24.5272 9.39619L24.5064 9.37614C25.3343 9.45499 26.166 9.27297 26.8881 8.85505C27.6103 8.43712 28.1876 7.80358 28.5414 7.04085C28.8952 6.27813 29.0083 5.42333 28.8652 4.59307C28.7221 3.7628 28.3299 2.99749 27.7418 2.40151C27.1539 1.80555 26.3988 1.40791 25.5796 1.26289C24.7605 1.11785 23.9172 1.23246 23.1646 1.59109C22.4121 1.94971 21.7871 2.5349 21.3747 3.26683C20.9624 3.99875 20.7828 4.84178 20.8606 5.68092L20.8409 5.65976C20.8994 6.36126 20.8062 7.06727 20.5678 7.72849C20.3294 8.38971 19.9513 8.99021 19.4602 9.48807C18.9691 9.98578 18.3766 10.369 17.7243 10.6107C17.0718 10.8523 16.3753 10.9468 15.6832 10.8874L15.703 10.9086C15.1148 10.8486 14.5207 10.9217 13.9638 11.1229C13.407 11.3239 12.9011 11.648 12.4829 12.0715C12.0647 12.495 11.7446 13.0076 11.5458 13.5719C11.347 14.1362 11.2744 14.7381 11.3332 15.3344L11.3134 15.3143C11.3716 16.0157 11.2781 16.7216 11.0396 17.3827C10.8009 18.0437 10.4229 18.6441 9.93189 19.1418C9.4408 19.6395 8.84852 20.0226 8.19633 20.2645C7.54414 20.5063 6.84775 20.601 6.15573 20.542L6.17551 20.562C5.3476 20.4832 4.51586 20.6652 3.79374 21.0831C3.07162 21.5011 2.49427 22.1346 2.14045 22.8973C1.78663 23.6601 1.67354 24.5149 1.81663 25.3451C1.95973 26.1754 2.35203 26.9407 2.94002 27.5366C3.52802 28.1327 4.28308 28.5303 5.10222 28.6753C5.92137 28.8203 6.76471 28.7057 7.51723 28.3471C8.26974 27.9885 8.8948 27.4033 9.30712 26.6714C9.71949 25.9394 9.89903 25.0964 9.82124 24.2573L9.84212 24.2773C9.78366 23.5758 9.87706 22.8699 10.1156 22.2088C10.354 21.5477 10.7321 20.9473 11.2232 20.4495C11.7143 19.9517 12.3067 19.5685 12.9589 19.3269C13.6112 19.0851 14.3076 18.9904 14.9998 19.0497Z" fill="#3E444D"/>
<path d="M7.63591 16.8145C8.05237 16.3899 8.37121 15.8774 8.56969 15.3136C8.76818 14.7497 8.8414 14.1483 8.78413 13.5525L8.80499 13.5725C8.74654 12.8709 8.83989 12.1647 9.07856 11.5034C9.31722 10.8421 9.69545 10.2416 10.1868 9.74376C10.6782 9.24597 11.2708 8.86287 11.9233 8.62125C12.5759 8.37963 13.2726 8.2853 13.9649 8.34486L13.944 8.32481C14.7716 8.40341 15.603 8.22133 16.3248 7.80343C17.0466 7.38554 17.6236 6.75215 17.9772 5.98966C18.3308 5.22716 18.4438 4.37268 18.3007 3.54273C18.1577 2.71277 17.7654 1.94776 17.1777 1.352C16.5899 0.756242 15.8351 0.358744 15.0163 0.213719C14.1975 0.068683 13.3544 0.183193 12.6022 0.5416C11.8498 0.900008 11.2249 1.48488 10.8127 2.21647C10.4003 2.94805 10.2207 3.79074 10.2982 4.62959L10.2785 4.60954C10.3369 5.311 10.2435 6.01693 10.005 6.67807C9.76643 7.3392 9.38848 7.9396 8.89737 8.43737C8.40627 8.93515 7.8139 9.31829 7.16162 9.56001C6.50935 9.80179 5.81288 9.89645 5.12081 9.8372L5.14059 9.85725C4.46437 9.79577 3.78378 9.90837 3.1619 10.1845C2.54001 10.4605 1.99694 10.8913 1.58302 11.4368C1.1691 11.9822 0.897729 12.6248 0.794027 13.3048C0.690336 13.9849 0.75768 14.6805 0.989818 15.3271C1.22196 15.9739 1.61139 16.5506 2.12203 17.0041C2.63266 17.4577 3.24798 17.7732 3.91095 17.9216C4.57392 18.0698 5.26311 18.0461 5.91465 17.8527C6.56618 17.6591 7.15897 17.302 7.6381 16.8145H7.63591Z" fill="#3E444D"/>
</svg>
