<svg width="314" height="90" viewBox="0 0 314 90" fill="none" xmlns="http://www.w3.org/2000/svg">
<path d="M104.401 8.8C104.401 3.96 108.321 -9.53674e-07 113.161 -9.53674e-07H118.201H120.041H121.681H124.241H128.561C133.401 -9.53674e-07 137.361 3.96 137.361 8.8V15.24C137.361 20.08 133.401 24 128.561 24H124.401H121.681H120.041H116.601H113.161C108.321 24 104.401 20.08 104.401 15.24V8.8ZM113.161 20.72H116.601H120.041H121.681H124.401H128.561C131.601 20.72 134.041 18.24 134.041 15.24V8.8C134.041 5.8 131.601 3.32 128.561 3.32H124.241H121.681H120.041H118.201H113.161C110.161 3.32 107.681 5.8 107.681 8.8V15.24C107.681 18.24 110.161 20.72 113.161 20.72ZM147.456 -9.53674e-07V15.24C147.456 18.24 149.936 20.72 152.936 20.72H166.696C169.736 20.72 172.176 18.24 172.176 15.24V-9.53674e-07H175.496V15.24C175.496 20.08 171.536 24 166.696 24H152.936C148.096 24 144.176 20.08 144.176 15.24V-9.53674e-07H147.456ZM204.43 11.64C206.71 11.64 208.59 9.76 208.59 7.52C208.59 7.48 208.59 7.48 208.59 7.48C208.59 5.2 206.75 3.32 204.43 3.32H194.55H193.51H182.31V-9.53674e-07H193.51H194.55H204.43C208.55 0.0399985 211.91 3.36 211.91 7.48C211.91 10.88 209.55 13.88 206.23 14.72L206.07 14.76C205.99 14.76 205.91 14.8 205.83 14.8L212.19 24.04H207.95L201.67 14.92H200.51H194.55H193.51H185.59V24.04H182.31V14.92V11.64H185.59H193.51H194.55H204.43ZM0.316635 77.298V67.96C0.316635 60.942 6.00064 55.2 13.0186 55.2H16.9046H20.7906H23.1686H27.7506H32.3326C38.8866 55.2 44.3966 60.304 44.9766 66.742H40.2206C39.5826 62.914 36.2766 60.014 32.3326 60.014H27.7506H23.1686H20.7906H16.9046H13.0186C8.66864 60.014 5.07264 63.61 5.07264 67.96V77.298C5.07264 81.648 8.66864 85.244 13.0186 85.244H16.9046H20.7906H23.1686H27.7506H32.3326C36.2766 85.244 39.5826 82.344 40.2206 78.516H44.9766C44.3966 84.954 38.8866 90 32.3326 90H27.7506H23.1686H20.7906H16.9046H13.0186C6.00064 90 0.316635 84.316 0.316635 77.298ZM92.9232 90H54.8752V55.2H59.6312V85.244H92.9232V90ZM102.807 55.2H107.563V90H102.807V55.2ZM117.434 85.244H157.338V90H117.434V85.244ZM117.434 70.222H151.77V75.036H117.434V70.222ZM117.434 55.2H157.338V60.014H117.434V55.2ZM167.178 55.2H174.428L204.472 85.766V55.2H209.228V90H201.92L171.934 59.492V90H167.178V55.2ZM260.776 55.2V60.014H242.332V90H237.518V60.014H219.074V55.2H260.776ZM310.591 60.014H280.547C277.763 60.014 275.501 62.276 275.443 65.06V65.118C275.443 65.176 275.443 65.176 275.443 65.176C275.501 67.96 277.705 70.222 280.489 70.222H280.547H303.399C308.851 70.222 313.317 74.688 313.317 80.14C313.317 84.258 310.707 88.028 306.821 89.42C305.719 89.826 304.559 90 303.399 90H273.413V85.244H303.399C306.241 85.244 308.503 82.982 308.561 80.198V80.14C308.561 80.082 308.561 80.082 308.561 80.082C308.503 77.298 306.241 75.036 303.515 75.036C303.457 75.036 303.457 75.036 303.399 75.036H280.547C275.095 75.036 270.687 70.57 270.687 65.118C270.687 61 273.297 57.23 277.183 55.838C278.227 55.432 279.387 55.2 280.547 55.2H310.591V60.014Z" fill="url(#paint0_linear_8_416)"/>
<defs>
<linearGradient id="paint0_linear_8_416" x1="357" y1="47.9999" x2="-25" y2="47.9999" gradientUnits="userSpaceOnUse">
<stop stop-color="white" stop-opacity="0.24"/>
<stop offset="0.490216" stop-color="white"/>
<stop offset="1" stop-color="white" stop-opacity="0.25"/>
</linearGradient>
</defs>
</svg>
